<?xml version="1.0" encoding="utf-8"?>
<!-- Generator: Adobe Illustrator 27.6.1, SVG Export Plug-In . SVG Version: 6.00 Build 0)  -->
<svg version="1.1" id="Layer_1" xmlns="http://www.w3.org/2000/svg" xmlns:xlink="http://www.w3.org/1999/xlink" x="0px" y="0px"
	 viewBox="0 0 1175.9 363.5" style="enable-background:new 0 0 1175.9 363.5;" xml:space="preserve">
<style type="text/css">
	.st0{enable-background:new    ;}
	.st1{fill:url(#rect2970_00000047755822314337756160000017123527876815081129_);}
	.st2{fill:#FFFFFF;}
</style>
<g class="st0">
	<path d="M681.2,81.8v11.7c0,2.7-0.5,5.2-1.6,7.6c-1.1,2.4-2.5,4.5-4.3,6.2c-1.8,1.8-3.9,3.2-6.4,4.2c-2.5,1-5.1,1.5-7.8,1.5
		c-2.8,0-5.5-0.5-7.9-1.5c-2.5-1-4.6-2.4-6.4-4.2c-1.8-1.8-3.2-3.8-4.3-6.2c-1-2.4-1.6-4.9-1.6-7.6V75.3c0-2.7,0.5-5.2,1.6-7.6
		c1-2.4,2.5-4.5,4.3-6.2c1.8-1.8,3.9-3.2,6.4-4.2s5.1-1.5,7.9-1.5c2.4,0,4.7,0.4,6.9,1.1c2.2,0.7,4.1,1.8,5.8,3.1
		c1.7,1.3,3.1,2.9,4.3,4.7c1.2,1.8,2.1,3.8,2.6,5.8H673c-0.9-2.5-2.3-4.4-4.3-5.7c-2-1.3-4.5-2-7.6-2c-1.7,0-3.3,0.3-4.8,0.9
		c-1.5,0.6-2.7,1.5-3.8,2.6s-1.9,2.4-2.5,3.9c-0.6,1.5-0.9,3.2-0.9,5v18.1c0,1.8,0.3,3.5,0.9,5c0.6,1.5,1.4,2.8,2.5,3.9
		s2.4,1.9,3.8,2.6c1.5,0.6,3.1,0.9,4.8,0.9c1.9,0,3.7-0.3,5.3-0.9c1.6-0.6,3-1.5,4.1-2.6s2-2.4,2.7-3.9c0.6-1.5,1-3.2,1-5v-5h-10.2
		v-6.6H681.2z"/>
</g>
<g class="st0">
	<path d="M724.3,105.4v6.8h-31V56.5h8v48.9H724.3z"/>
</g>
<g class="st0">
	<path d="M752.2,55.8c2.9,0,5.6,0.5,8.1,1.6c2.5,1.1,4.7,2.5,6.5,4.4c1.9,1.9,3.3,4,4.4,6.5c1.1,2.5,1.6,5.2,1.6,8.1v16
		c0,2.8-0.5,5.5-1.6,8c-1.1,2.5-2.5,4.7-4.4,6.5c-1.9,1.9-4,3.3-6.5,4.4c-2.5,1.1-5.2,1.6-8.1,1.6c-2.9,0-5.5-0.5-8-1.6
		c-2.5-1.1-4.6-2.6-6.5-4.4s-3.3-4-4.4-6.5c-1.1-2.5-1.6-5.2-1.6-8v-16c0-2.8,0.5-5.5,1.6-8c1.1-2.5,2.5-4.7,4.3-6.5
		c1.8-1.9,4-3.3,6.5-4.4C746.7,56.3,749.4,55.8,752.2,55.8z M764.7,76.4c0-2-0.3-3.8-1-5.4c-0.6-1.6-1.5-3-2.6-4.2
		c-1.1-1.2-2.4-2.1-3.9-2.8c-1.5-0.7-3.2-1-4.9-1c-1.7,0-3.4,0.3-4.9,1c-1.5,0.7-2.8,1.6-3.9,2.8c-1.1,1.2-2,2.6-2.6,4.2
		c-0.6,1.6-1,3.4-1,5.4v16c0,2,0.3,3.8,1,5.4c0.6,1.6,1.5,3,2.6,4.2c1.1,1.2,2.4,2.1,3.9,2.8c1.5,0.7,3.1,1,4.9,1
		c1.8,0,3.4-0.3,4.9-1c1.5-0.7,2.8-1.6,3.9-2.8c1.1-1.2,2-2.6,2.6-4.2c0.6-1.6,1-3.4,1-5.4V76.4z"/>
	<path d="M785.7,112.2V56.5h21.2c2.2,0,4.2,0.3,6.1,0.8c1.9,0.5,3.6,1.3,5,2.5c1.4,1.1,2.6,2.6,3.4,4.4c0.8,1.8,1.3,4.1,1.3,6.8
		c0,1.8-0.2,3.4-0.7,4.8s-1,2.6-1.7,3.6c-0.7,1-1.5,1.9-2.5,2.6c-0.9,0.7-1.9,1.2-2.9,1.5c1.1,0.2,2.2,0.7,3.3,1.4
		c1.1,0.7,2.1,1.6,3,2.7c0.9,1.1,1.6,2.4,2.2,4c0.6,1.5,0.9,3.3,0.9,5.3c0,2.7-0.4,5-1.3,6.9c-0.8,2-2,3.6-3.4,4.8
		c-1.4,1.3-3.1,2.2-5,2.8c-1.9,0.6-4,0.9-6.2,0.9H785.7z M793.7,63.1v17.3h12c1.1,0,2.1-0.2,3.2-0.5c1-0.3,1.9-0.9,2.7-1.6
		c0.8-0.7,1.4-1.7,1.9-2.9c0.5-1.2,0.7-2.6,0.7-4.4c0-1.3-0.2-2.5-0.7-3.5c-0.5-1-1.1-1.8-1.9-2.5c-0.8-0.6-1.7-1.1-2.7-1.4
		c-1-0.3-2.1-0.5-3.2-0.5H793.7z M807.4,105.7c1.1,0,2.1-0.2,3.1-0.6c1-0.4,1.9-1,2.6-1.8c0.8-0.8,1.4-1.7,1.9-2.8s0.7-2.3,0.7-3.6
		c0-1.7-0.2-3.2-0.7-4.5c-0.5-1.3-1.1-2.4-1.9-3.3c-0.8-0.9-1.6-1.6-2.6-2c-1-0.4-2-0.7-3.1-0.7h-13.7v19.3H807.4z"/>
	<path d="M829.9,112.2c0.4-1.6,1.1-3.9,1.9-6.8c0.8-2.9,1.8-6.1,2.8-9.6c1-3.5,2.1-7.2,3.3-11.1c1.1-3.9,2.2-7.6,3.3-11.2
		c1-3.6,2-6.9,2.9-9.9c0.9-3,1.6-5.4,2.1-7.2h8.5c0,0.1,0.3,1,0.8,2.6c0.5,1.6,1.1,3.8,1.8,6.3s1.6,5.5,2.6,8.8
		c1,3.3,1.9,6.6,2.9,10.1s1.9,6.8,2.9,10.1c1,3.3,1.8,6.2,2.6,8.8c0.7,2.6,1.3,4.7,1.8,6.3c0.5,1.6,0.7,2.5,0.8,2.6h-8.5L859,99.4
		h-17.2l-3.4,12.8H829.9z M843.5,92.5h13.9L850.4,66L843.5,92.5z"/>
	<path d="M910.2,105.4v6.8h-31V56.5h8v48.9H910.2z"/>
</g>
<g class="st0">
	<path d="M655.4,148.6v24.6h17.7v-24.6h8v55.7h-8v-24.6h-17.7v24.6h-8v-55.7H655.4z"/>
	<path d="M729.4,148.6v6.8h-23.3v17.7h21.1v6.5h-21.1v17.7h23.3v6.8H698v-55.7H729.4z"/>
	<path d="M738.4,204.3c0.4-1.6,1.1-3.9,1.9-6.8c0.8-2.9,1.8-6.1,2.8-9.6c1-3.5,2.1-7.2,3.3-11.1c1.1-3.9,2.2-7.6,3.3-11.2
		c1-3.6,2-6.9,2.9-9.9c0.9-3,1.6-5.4,2.1-7.2h8.5c0,0.1,0.3,1,0.8,2.6c0.5,1.6,1.1,3.8,1.8,6.3s1.6,5.5,2.6,8.8
		c1,3.3,1.9,6.6,2.9,10.1s1.9,6.8,2.9,10.1c1,3.3,1.8,6.2,2.6,8.8c0.7,2.6,1.3,4.7,1.8,6.3c0.5,1.6,0.7,2.5,0.8,2.6h-8.5l-3.4-12.8
		h-17.2l-3.4,12.8H738.4z M751.9,184.6h13.9l-6.9-26.5L751.9,184.6z"/>
</g>
<g class="st0">
	<path d="M822.1,197.5v6.8h-31v-55.7h8v48.9H822.1z"/>
</g>
<g class="st0">
	<path d="M823.3,155.5v-6.8h40.9v6.8h-16.6v48.9h-8v-48.9H823.3z"/>
	<path d="M884.9,148.6v24.6h17.7v-24.6h8v55.7h-8v-24.6h-17.7v24.6h-8v-55.7H884.9z"/>
</g>
<g class="st0">
	<path d="M678.7,242.7v6.8h-23.3v17.7h21.1v6.5h-21.1v17.7h23.3v6.8h-31.3v-55.7H678.7z"/>
	<path d="M693.2,242.7h8.1l18.7,38.7v-38.7h8v55.7h-8l-18.8-38.7v38.7h-8V242.7z"/>
	<path d="M783.1,267.9v11.7c0,2.7-0.5,5.2-1.6,7.6c-1.1,2.4-2.5,4.5-4.3,6.2c-1.8,1.8-3.9,3.2-6.4,4.2c-2.5,1-5.1,1.5-7.8,1.5
		c-2.8,0-5.5-0.5-7.9-1.5c-2.5-1-4.6-2.4-6.4-4.2c-1.8-1.8-3.2-3.8-4.3-6.2c-1-2.4-1.6-4.9-1.6-7.6v-18.1c0-2.7,0.5-5.2,1.6-7.6
		c1-2.4,2.5-4.5,4.3-6.2c1.8-1.8,3.9-3.2,6.4-4.2s5.1-1.5,7.9-1.5c2.4,0,4.7,0.4,6.9,1.1c2.2,0.7,4.1,1.8,5.8,3.1
		c1.7,1.3,3.1,2.9,4.3,4.7c1.2,1.8,2.1,3.8,2.6,5.8h-7.6c-0.9-2.5-2.3-4.4-4.3-5.7c-2-1.3-4.5-2-7.6-2c-1.7,0-3.3,0.3-4.8,0.9
		c-1.5,0.6-2.7,1.5-3.8,2.6s-1.9,2.4-2.5,3.9c-0.6,1.5-0.9,3.2-0.9,5v18.1c0,1.8,0.3,3.5,0.9,5c0.6,1.5,1.4,2.8,2.5,3.9
		s2.4,1.9,3.8,2.6c1.5,0.6,3.1,0.9,4.8,0.9c1.9,0,3.7-0.3,5.3-0.9c1.6-0.6,3-1.5,4.1-2.6c1.1-1.1,2-2.4,2.7-3.9c0.6-1.5,1-3.2,1-5
		v-5h-10.2v-6.6H783.1z"/>
	<path d="M806.2,242.7v55.7h-8v-55.7H806.2z"/>
	<path d="M823.1,242.7h8.1l18.7,38.7v-38.7h8v55.7h-8l-18.8-38.7v38.7h-8V242.7z"/>
	<path d="M906.1,242.7v6.8h-23.3v17.7h21.1v6.5h-21.1v17.7h23.3v6.8h-31.3v-55.7H906.1z"/>
	<path d="M951.9,242.7v6.8h-23.3v17.7h21.1v6.5h-21.1v17.7h23.3v6.8h-31.3v-55.7H951.9z"/>
	<path d="M986,242.7c2.2,0,4.3,0.3,6.3,1c2.1,0.7,3.9,1.7,5.4,3c1.6,1.3,2.8,3,3.8,5c0.9,2,1.4,4.3,1.4,6.8c0,2-0.3,3.8-0.9,5.4
		s-1.4,3.1-2.4,4.4c-1,1.3-2.2,2.4-3.6,3.2c-1.4,0.9-2.8,1.5-4.4,2c0.4,0.2,1.1,0.8,1.9,1.8c0.8,0.9,1.7,2.5,2.7,4.7
		c0.7,1.5,1.5,3.3,2.5,5.4c1,2.1,1.9,4.1,2.8,5.9c0.9,1.9,1.6,3.5,2.3,4.9c0.6,1.4,1,2.1,1,2.1H996c-0.3-0.7-0.9-1.8-1.6-3.4
		s-1.5-3.2-2.4-5c-0.9-1.8-1.7-3.6-2.6-5.4c-0.8-1.8-1.5-3.3-2.1-4.5c-0.5-1-1-1.9-1.6-2.7c-0.5-0.7-1-1.3-1.6-1.9
		c-0.6-0.6-1.2-0.9-1.8-0.9h-7.9v23.8h-8v-55.7H986z M974.5,268H986c1.2,0,2.4-0.2,3.5-0.6c1.1-0.4,2-1,2.8-1.7
		c0.8-0.8,1.4-1.8,1.9-3c0.5-1.2,0.7-2.6,0.7-4.2c0-3.2-0.9-5.5-2.6-7.1c-1.7-1.5-3.8-2.3-6.3-2.3h-11.5V268z"/>
	<path d="M1026.7,242.7v55.7h-8v-55.7H1026.7z"/>
	<path d="M1043.5,242.7h8.1l18.7,38.7v-38.7h8v55.7h-8l-18.8-38.7v38.7h-8V242.7z"/>
	<path d="M1133.4,267.9v11.7c0,2.7-0.5,5.2-1.6,7.6c-1.1,2.4-2.5,4.5-4.3,6.2c-1.8,1.8-3.9,3.2-6.4,4.2c-2.5,1-5.1,1.5-7.8,1.5
		c-2.8,0-5.5-0.5-7.9-1.5c-2.5-1-4.6-2.4-6.4-4.2c-1.8-1.8-3.2-3.8-4.3-6.2c-1-2.4-1.6-4.9-1.6-7.6v-18.1c0-2.7,0.5-5.2,1.6-7.6
		c1-2.4,2.5-4.5,4.3-6.2c1.8-1.8,3.9-3.2,6.4-4.2s5.1-1.5,7.9-1.5c2.4,0,4.7,0.4,6.9,1.1c2.2,0.7,4.1,1.8,5.8,3.1
		c1.7,1.3,3.1,2.9,4.3,4.7c1.2,1.8,2.1,3.8,2.6,5.8h-7.6c-0.9-2.5-2.3-4.4-4.3-5.7c-2-1.3-4.5-2-7.6-2c-1.7,0-3.3,0.3-4.8,0.9
		c-1.5,0.6-2.7,1.5-3.8,2.6s-1.9,2.4-2.5,3.9c-0.6,1.5-0.9,3.2-0.9,5v18.1c0,1.8,0.3,3.5,0.9,5c0.6,1.5,1.4,2.8,2.5,3.9
		s2.4,1.9,3.8,2.6c1.5,0.6,3.1,0.9,4.8,0.9c1.9,0,3.7-0.3,5.3-0.9c1.6-0.6,3-1.5,4.1-2.6c1.1-1.1,2-2.4,2.7-3.9c0.6-1.5,1-3.2,1-5
		v-5h-10.2v-6.6H1133.4z"/>
</g>
<g class="st0">
	<path d="M69.2,162.4v34.7c0,26.8,5.5,46.8,16.5,60c11,13.3,26.2,19.9,45.5,19.9c17.3,0,30.9-4.8,40.5-14.4
		c9.7-9.6,14.5-21.4,14.5-35.3h25.9c0,8.4-1.6,16.8-4.9,25.3c-3.3,8.5-8.1,16.6-14.4,24.2c-6.3,7.6-14.9,13.8-25.8,18.4
		c-10.9,4.6-23.3,6.9-37.2,6.9c-26.8,0-48-9-63.5-27c-15.5-18-23.3-43.9-23.3-77.6v-35.8c0-33.4,7.9-59.5,23.6-78.1
		c15.7-18.6,36.9-27.9,63.5-27.9c13.3,0,25.3,2.3,36,6.9c10.7,4.6,19.3,10.8,25.8,18.6c6.5,7.8,11.5,16.2,15,25.4
		c3.5,9.2,5.2,18.6,5.2,28.3h-25.9c0-14.1-5-26.6-15.1-37.6c-10.1-10.9-23.8-16.4-41-16.4c-18.5,0-33.2,7-44.3,21
		C74.7,115.9,69.2,136,69.2,162.4z"/>
</g>
<g class="st0">
	<path d="M472,297h-24.2V60.3H472V297z"/>
</g>
<rect x="446.9" y="57.5" width="25" height="240"/>
<rect x="456.5" y="57.5" width="138.3" height="23"/>
<rect x="471.8" y="274.5" width="123.4" height="23"/>
<rect x="382.5" y="57.5" width="25" height="105"/>
<rect x="243.9" y="189.4" width="25" height="108"/>
<rect x="186.3" y="189.4" width="25.8" height="38"/>
<g id="g215">
	
		<linearGradient id="rect2970_00000062892679565587351050000012334596731288800658_" gradientUnits="userSpaceOnUse" x1="171.1507" y1="162.3887" x2="3157.8916" y2="162.3887" gradientTransform="matrix(0.1741 0 0 -1 68.7327 339.0377)">
		<stop  offset="1.000000e-04" style="stop-color:#BF181A"/>
		<stop  offset="0.355" style="stop-color:#873671"/>
		<stop  offset="1" style="stop-color:#457EC1"/>
	</linearGradient>
	<path id="rect2970" style="fill:url(#rect2970_00000062892679565587351050000012334596731288800658_);" d="M242.2,56.5v105.9H98.5
		V190h283v106.8h26.2V190H487v0c0,0,0.2,0,0.3,0h0.2v0c0.7,0,4.6,0.1,10.1-1.8c5.9-2,12.7-6.4,18.1-7.8c6-1.6,9.1,1.1,14.6,6.8
		c2.5,2.6,5.3,5.3,8.6,7.1c2.7,1.4,5.5,2.1,8.7,1.7c0,0,0.9,0,2.2-0.3c0,0,0.1,0,0.1,0c0,0,0,0,0,0c1.1-0.3,2.6-0.8,4.3-1.9
		c4-2.5,9.2-7.8,14.3-10.3c2.6-1.3,5.1-1.7,7.8-1.2c2.8,0.6,5.3,2,8.6,3.8c3.2,1.7,6.7,3.3,10.7,3.7c4,0.3,8.3-0.7,13.1-3.5
		c0.2-0.1,0.4-0.2,0.6-0.2c0,0,0.6-0.2,1.7-1.1c1.2-0.9,2.7-2.3,4-3.9c1.3-1.6,1.9-2.6,2.2-3.3c0.3-0.7,0.3-0.8,1-1.6
		c0,0-0.7,0-1.8,0.1c-1.5,0.1-2.3,0.3-4.2,0.6c-1.7,0.2-3.2,0.4-4.9,0.2c-1.5-0.1-3-0.5-4.7-0.9c-0.9-0.5-2-1.2-3.4-2.5
		c-3.8-3.7-9.7-11.9-16.3-17c-3.4-2.6-6.7-4-10.1-3.9c-3.5,0.1-6.6,1.8-9.8,4.4c-6.8,5.6-11.2,12.8-16.1,12.4v0
		c-0.4,0-0.8,0-1.5-0.1c-1.7-0.2-3.8-0.6-6.1-1.8c-2.3-1.2-4.3-2.9-6.5-5.1c-2.1-2.1-4.2-4.5-6.4-6.2c-2.3-1.8-4.8-2.9-7.9-3
		c-3.1-0.1-6.6,0.8-10.5,2.3c-8.1,3.1-15.3,7.3-20.8,6.8v0h-0.2c-0.1,0-0.2,0-0.3,0v0H382.4v-54.6h-11.7v4.5h-1.2v3.5h-3.9v13.6h-5
		v23.2h-2v-26.6h-4.5V98.7c0-0.2,0,0,0-0.3c0-5.1-3.7-10-9.1-11.2v-4.6h-1.1v-4.5h-0.7v-3.1h-1.6v3.1h-0.7v4.5h-1.1v4.5
		c-5.3,1-9.4,5-9.8,10l0,0l0,28.9h-5.2v8.1H320v-1c0-0.1-0.1-0.3-0.1-0.4c-0.1-0.2-0.1-0.4-0.2-0.5c-0.1-0.2-0.1-0.3-0.2-0.5
		c-0.1-0.2-0.2-0.3-0.3-0.5c-0.1-0.2-0.2-0.3-0.3-0.5c-0.1-0.1-0.2-0.3-0.4-0.4c-0.1-0.1-0.3-0.3-0.4-0.4c-0.1-0.1-0.3-0.2-0.4-0.4
		c-0.1-0.1-0.3-0.2-0.5-0.3c-0.2-0.1-0.3-0.2-0.5-0.3c-0.2-0.1-0.3-0.2-0.5-0.2c-0.2-0.1-0.3-0.1-0.5-0.2c-0.1,0-0.1,0-0.2,0h-2.8
		h-0.1c-0.8-2.2-3-8.8-4.5-13.2c0,0-1.1,3-2.2,6h-12.2v7.2h-20.5v4.4c-0.7,2.3-2.5,4-4.8,4.5v-81H242.2z"/>
</g>
<g class="st0">
	<path class="st2" d="M101.5,188.3v-24.3h5.2v24.3H101.5z"/>
	<path class="st2" d="M121.4,188.3v-24.3h5.2v24.3H121.4z"/>
	<path class="st2" d="M148.7,163.8c2.5,0,4.4,0.8,5.8,2.5c1.7,2,2.5,5.3,2.5,9.9c0,4.6-0.8,7.9-2.5,9.9c-1.4,1.7-3.3,2.5-5.8,2.5
		c-2.5,0-4.5-0.9-6-2.7c-1.5-1.8-2.3-5.1-2.3-9.7c0-4.6,0.8-7.9,2.5-9.9C144.3,164.7,146.2,163.8,148.7,163.8z M148.7,167.7
		c-0.6,0-1.1,0.2-1.6,0.5c-0.5,0.4-0.8,1-1.1,1.9c-0.3,1.2-0.5,3.2-0.5,6.1s0.2,4.8,0.5,5.9c0.3,1.1,0.7,1.8,1.1,2.1
		c0.5,0.4,1,0.5,1.6,0.5c0.6,0,1.1-0.2,1.6-0.5c0.5-0.4,0.8-1,1.1-1.9c0.3-1.2,0.5-3.2,0.5-6.1s-0.2-4.8-0.5-5.9
		c-0.3-1.1-0.7-1.8-1.1-2.1C149.9,167.9,149.3,167.7,148.7,167.7z"/>
	<path class="st2" d="M171.2,188.3v-24.3h5.2v24.3H171.2z"/>
	<path class="st2" d="M198.5,163.8c2.5,0,4.4,0.8,5.8,2.5c1.7,2,2.5,5.3,2.5,9.9c0,4.6-0.8,7.9-2.5,9.9c-1.4,1.7-3.3,2.5-5.8,2.5
		c-2.5,0-4.5-0.9-6-2.7c-1.5-1.8-2.3-5.1-2.3-9.7c0-4.6,0.8-7.9,2.5-9.9C194.1,164.7,196,163.8,198.5,163.8z M198.5,167.7
		c-0.6,0-1.1,0.2-1.6,0.5c-0.5,0.4-0.8,1-1.1,1.9c-0.3,1.2-0.5,3.2-0.5,6.1s0.2,4.8,0.5,5.9c0.3,1.1,0.7,1.8,1.1,2.1
		c0.5,0.4,1,0.5,1.6,0.5c0.6,0,1.1-0.2,1.6-0.5c0.5-0.4,0.8-1,1.1-1.9c0.3-1.2,0.5-3.2,0.5-6.1s-0.2-4.8-0.5-5.9
		c-0.3-1.1-0.7-1.8-1.1-2.1C199.7,167.9,199.1,167.7,198.5,167.7z"/>
	<path class="st2" d="M228.4,163.8c2.5,0,4.4,0.8,5.8,2.5c1.7,2,2.5,5.3,2.5,9.9c0,4.6-0.8,7.9-2.5,9.9c-1.4,1.7-3.3,2.5-5.8,2.5
		c-2.5,0-4.5-0.9-6-2.7c-1.5-1.8-2.3-5.1-2.3-9.7c0-4.6,0.8-7.9,2.5-9.9C224,164.7,225.9,163.8,228.4,163.8z M228.4,167.7
		c-0.6,0-1.1,0.2-1.6,0.5c-0.5,0.4-0.8,1-1.1,1.9c-0.3,1.2-0.5,3.2-0.5,6.1s0.2,4.8,0.5,5.9c0.3,1.1,0.7,1.8,1.1,2.1
		c0.5,0.4,1,0.5,1.6,0.5c0.6,0,1.1-0.2,1.6-0.5c0.5-0.4,0.8-1,1.1-1.9c0.3-1.2,0.5-3.2,0.5-6.1s-0.2-4.8-0.5-5.9
		c-0.3-1.1-0.7-1.8-1.1-2.1C229.5,167.9,229,167.7,228.4,167.7z"/>
	<path class="st2" d="M250.9,188.3v-24.3h5.2v24.3H250.9z"/>
	<path class="st2" d="M270.8,188.3v-24.3h5.2v24.3H270.8z"/>
	<path class="st2" d="M298.1,163.8c2.5,0,4.4,0.8,5.8,2.5c1.7,2,2.5,5.3,2.5,9.9c0,4.6-0.8,7.9-2.5,9.9c-1.4,1.7-3.3,2.5-5.8,2.5
		c-2.5,0-4.5-0.9-6-2.7c-1.5-1.8-2.3-5.1-2.3-9.7c0-4.6,0.8-7.9,2.5-9.9C293.7,164.7,295.6,163.8,298.1,163.8z M298.1,167.7
		c-0.6,0-1.1,0.2-1.6,0.5c-0.5,0.4-0.8,1-1.1,1.9c-0.3,1.2-0.5,3.2-0.5,6.1s0.2,4.8,0.5,5.9c0.3,1.1,0.7,1.8,1.1,2.1
		c0.5,0.4,1,0.5,1.6,0.5c0.6,0,1.1-0.2,1.6-0.5c0.5-0.4,0.8-1,1.1-1.9c0.3-1.2,0.5-3.2,0.5-6.1s-0.2-4.8-0.5-5.9
		c-0.3-1.1-0.7-1.8-1.1-2.1C299.3,167.9,298.7,167.7,298.1,167.7z"/>
</g>
</svg>
